<?xml version="1.0" encoding="UTF-8" standalone="no"?>
<!DOCTYPE svg PUBLIC "-//W3C//DTD SVG 1.1//EN" "http://www.w3.org/Graphics/SVG/1.1/DTD/svg11.dtd">
<svg version="1.1" xmlns="http://www.w3.org/2000/svg" xmlns:xlink="http://www.w3.org/1999/xlink" preserveAspectRatio="xMidYMid meet" viewBox="0 0 512 512" width="512" height="512"><defs><path d="M391.3 41.13L391.95 41.2L392.58 41.29L393.21 41.41L393.83 41.55L394.44 41.71L395.05 41.9L395.64 42.11L396.22 42.34L396.78 42.59L397.34 42.87L397.89 43.16L398.42 43.48L398.93 43.81L399.44 44.17L399.93 44.54L400.4 44.93L400.86 45.34L401.3 45.77L401.73 46.21L402.14 46.67L402.53 47.14L402.9 47.63L403.26 48.14L403.59 48.65L403.91 49.18L404.2 49.73L404.48 50.28L404.73 50.85L404.96 51.43L405.17 52.02L405.36 52.63L405.52 53.24L405.66 53.86L405.78 54.49L405.87 55.12L405.94 55.77L405.98 56.42L405.99 57.08L405.99 209.27L308.94 252.43L190.69 199.84L213.27 311.21L117.6 390.08L189.13 398.87L52.34 398.87L51.68 398.86L51.02 398.82L50.38 398.75L49.74 398.66L49.11 398.55L48.49 398.41L47.88 398.24L47.28 398.06L46.69 397.85L46.11 397.61L45.54 397.36L44.98 397.09L44.44 396.79L43.91 396.47L43.39 396.14L42.89 395.79L42.4 395.41L41.92 395.02L41.47 394.61L41.02 394.19L40.6 393.74L40.19 393.28L39.8 392.81L39.42 392.32L39.07 391.82L38.73 391.3L38.42 390.77L38.12 390.23L37.85 389.67L37.59 389.1L37.36 388.52L37.15 387.93L36.97 387.33L36.8 386.72L36.66 386.1L36.55 385.47L36.46 384.83L36.39 384.18L36.35 383.53L36.34 382.87L36.34 57.08L36.35 56.42L36.39 55.77L36.46 55.12L36.55 54.49L36.66 53.86L36.8 53.24L36.97 52.63L37.15 52.02L37.36 51.43L37.59 50.85L37.85 50.28L38.12 49.73L38.42 49.18L38.73 48.65L39.07 48.14L39.42 47.63L39.8 47.14L40.19 46.67L40.6 46.21L41.02 45.77L41.47 45.34L41.92 44.93L42.4 44.54L42.89 44.17L43.39 43.81L43.91 43.48L44.44 43.16L44.98 42.87L45.54 42.59L46.11 42.34L46.69 42.11L47.28 41.9L47.88 41.71L48.49 41.55L49.11 41.41L49.74 41.29L50.38 41.2L51.02 41.13L51.68 41.09L52.34 41.08L389.99 41.08L390.65 41.09L391.3 41.13ZM404.6 311.21L405.99 304.37L405.99 312.35L404.6 311.21Z" id="aPRbEUNN4"></path><path d="M264.98 406.48L141.36 391.16L230.81 316.81L209.69 211.83L320.26 261.4L430.83 211.83L409.71 316.81L499.16 391.16L375.54 406.48L320.26 501.99L264.98 406.48Z" id="a44tihwjgF"></path></defs><g><g><g><g><filter id="shadow14510835" x="1.34" y="6.08" width="445.65" height="433.79" filterUnits="userSpaceOnUse" primitiveUnits="userSpaceOnUse"><feFlood></feFlood><feComposite in2="SourceAlpha" operator="in"></feComposite><feGaussianBlur stdDeviation="3.16"></feGaussianBlur><feOffset dx="6" dy="6" result="afterOffset"></feOffset><feFlood flood-color="#a99a9a" flood-opacity="0.5"></feFlood><feComposite in2="afterOffset" operator="in"></feComposite><feMorphology operator="dilate" radius="4"></feMorphology><feComposite in2="SourceAlpha" operator="out"></feComposite></filter><path d="M391.3 41.13L391.95 41.2L392.58 41.29L393.21 41.41L393.83 41.55L394.44 41.71L395.05 41.9L395.64 42.11L396.22 42.34L396.78 42.59L397.34 42.87L397.89 43.16L398.42 43.48L398.93 43.81L399.44 44.17L399.93 44.54L400.4 44.93L400.86 45.34L401.3 45.77L401.73 46.21L402.14 46.67L402.53 47.14L402.9 47.63L403.26 48.14L403.59 48.65L403.91 49.18L404.2 49.73L404.48 50.28L404.73 50.85L404.96 51.43L405.17 52.02L405.36 52.63L405.52 53.24L405.66 53.86L405.78 54.49L405.87 55.12L405.94 55.77L405.98 56.42L405.99 57.08L405.99 209.27L308.94 252.43L190.69 199.84L213.27 311.21L117.6 390.08L189.13 398.87L52.34 398.87L51.68 398.86L51.02 398.82L50.38 398.75L49.74 398.66L49.11 398.55L48.49 398.41L47.88 398.24L47.28 398.06L46.69 397.85L46.11 397.61L45.54 397.36L44.98 397.09L44.44 396.79L43.91 396.47L43.39 396.14L42.89 395.79L42.4 395.41L41.92 395.02L41.47 394.61L41.02 394.19L40.6 393.74L40.19 393.28L39.8 392.81L39.42 392.32L39.07 391.82L38.73 391.3L38.42 390.77L38.12 390.23L37.85 389.67L37.59 389.1L37.36 388.52L37.15 387.93L36.97 387.33L36.8 386.72L36.66 386.1L36.55 385.47L36.46 384.83L36.39 384.18L36.35 383.53L36.34 382.87L36.34 57.08L36.35 56.42L36.39 55.77L36.46 55.12L36.55 54.49L36.66 53.86L36.8 53.24L36.97 52.63L37.15 52.02L37.36 51.43L37.59 50.85L37.85 50.28L38.12 49.73L38.42 49.18L38.73 48.65L39.07 48.14L39.42 47.63L39.8 47.14L40.19 46.67L40.6 46.21L41.02 45.77L41.47 45.34L41.92 44.93L42.4 44.54L42.89 44.17L43.39 43.81L43.91 43.48L44.44 43.16L44.98 42.87L45.54 42.59L46.11 42.34L46.69 42.11L47.28 41.9L47.88 41.71L48.49 41.55L49.11 41.41L49.74 41.29L50.38 41.2L51.02 41.13L51.68 41.09L52.34 41.08L389.99 41.08L390.65 41.09L391.3 41.13ZM404.6 311.21L405.99 304.37L405.99 312.35L404.6 311.21Z" id="e1GQN5I2dc" fill="white" fill-opacity="1" filter="url(#shadow14510835)"></path></g><use xlink:href="#aPRbEUNN4" opacity="1" fill="#d4acd2" fill-opacity="1"></use></g><g><g><filter id="shadow3890551" x="106.36" y="176.83" width="433.8" height="366.16" filterUnits="userSpaceOnUse" primitiveUnits="userSpaceOnUse"><feFlood></feFlood><feComposite in2="SourceAlpha" operator="in"></feComposite><feGaussianBlur stdDeviation="3.16"></feGaussianBlur><feOffset dx="6" dy="6" result="afterOffset"></feOffset><feFlood flood-color="#a99a9a" flood-opacity="0.5"></feFlood><feComposite in2="afterOffset" operator="in"></feComposite><feMorphology operator="dilate" radius="4"></feMorphology><feComposite in2="SourceAlpha" operator="out"></feComposite></filter><path d="M264.98 406.48L141.36 391.16L230.81 316.81L209.69 211.83L320.26 261.4L430.83 211.83L409.71 316.81L499.16 391.16L375.54 406.48L320.26 501.99L264.98 406.48Z" id="a52uS0s7K" fill="white" fill-opacity="1" filter="url(#shadow3890551)"></path></g><use xlink:href="#a44tihwjgF" opacity="1" fill="#815de5" fill-opacity="1"></use></g></g></g></svg>